{"title":"Edge of Tomorrow (2014) CAMRip [RUS]","uid":10626303,"size":785098752,"categoryP":"video","categoryS":"movies","magnet":"?xt=urn:btih:0552cb53e470d137c230859f7efc7842bb5e6cf6&amp;dn=Edge+of+Tomorrow+%282014%29+CAMRip+%5BRUS%5D&amp;tr=udp%3A%2F%2Ftracker.openbittorrent.com%3A80&amp;tr=udp%3A%2F%2Fopen.demonii.com%3A1337&amp;tr=udp%3A%2F%2Ftracker.coppersurfer.tk%3A6969&amp;tr=udp%3A%2F%2Fexodus.desync.com%3A6969","seeders":9,"leechers":0,"uploader":"yfjfrj","files":1,"time":1406237473,"description":"Edge of Tomorrow (2014) CAMRip [RUS]\n\nAn officer finds himself caught in a time loop in a war with an alien race. His skills increase as he faces the same brutal combat scenarios, and his union with a Special Forces warrior gets him closer and closer to defeating the enemy.\n\nMI:\nGeneral\nComplete name                            : D:moviesGPaHj.Budusheg0.2014.D.TS.745Mb.avi\nFormat                                   : AVI\nFormat/Info                              : Audio Video Interleave\nFile size                                : 749 MiB\nDuration                                 : 1h 47mn\nOverall bit rate                         : 970 Kbps\nWriting application                      : VirtualDubMod 1.5.10.2 (build 2540/release)\nWriting library                          : VirtualDubMod build 2540/release\n\nVideo\nID                                       : 0\nFormat                                   : MPEG-4 Visual\nFormat profile                           : Advanced Simple@L5\nFormat settings, BVOP                    : 2\nFormat settings, QPel                    : No\nFormat settings, GMC                     : No warppoints\nFormat settings, Matrix                  : Default (H.263)\nCodec ID                                 : XVID\nCodec ID/Hint                            : XviD\nDuration                                 : 1h 47mn\nBit rate                                 : 833 Kbps\nWidth                                    : 640 pixels\nHeight                                   : 272 pixels\nDisplay aspect ratio                     : 2.35:1\nFrame rate                               : 25.000 fps\nColor space                              : YUV\nChroma subsampling                       : 4:2:0\nBit depth                                : 8 bits\nScan type                                : Progressive\nCompression mode                         : Lossy\nBits/(Pixel*Frame)                       : 0.191\nStream size                              : 642 MiB (86%)\nWriting library                          : XviD 1.2.1 (UTC 2008-12-04)\n\nAudio\nID                                       : 1\nFormat                                   : MPEG Audio\nFormat version                           : Version 1\nFormat profile                           : Layer 3\nMode                                     : Joint stereo\nMode extension                           : MS Stereo\nCodec ID                                 : 55\nCodec ID/Hint                            : MP3\nDuration                                 : 1h 47mn\nBit rate mode                            : Constant\nBit rate                                 : 128 Kbps\nChannel(s)                               : 2 channels\nSampling rate                            : 48.0 KHz\nCompression mode                         : Lossy\nStream size                              : 98.8 MiB (13%)\nAlignment                                : Aligned on interleaves\nInterleave, duration                     : 40 ms (1.00 video frame)\nInterleave, preload duration             : 504 ms\n\nScreens: &lt;a href=&quot;\nhttp://i6.imageban.ru/out/2014/07/24/7b2076209c58ff5730e95e737e15faf7.png&quot; rel=&quot;nofollow&quot; target=&quot;_NEW&quot;&gt;\nhttp://i6.imageban.ru/out/2014/07/24/7b2076209c58ff5730e95e737e15faf7.png&lt;/a&gt; &lt;a href=&quot;\nhttp://i4.imageban.ru/out/2014/07/24/d587a4d34b3376e298b05e0fc63db889.png&quot; rel=&quot;nofollow&quot; target=&quot;_NEW&quot;&gt;\nhttp://i4.imageban.ru/out/2014/07/24/d587a4d34b3376e298b05e0fc63db889.png&lt;/a&gt; &lt;a href=&quot;\nhttp://i6.imageban.ru/out/2014/07/24/4c4848fe58cdd2369645058d085c83f4.png&quot; rel=&quot;nofollow&quot; target=&quot;_NEW&quot;&gt;\nhttp://i6.imageban.ru/out/2014/07/24/4c4848fe58cdd2369645058d085c83f4.png&lt;/a&gt; &lt;a href=&quot;\nhttp://i6.imageban.ru/out/2014/07/24/ab42786c8cbbb8d52d96aa09549de96a.png&quot; rel=&quot;nofollow&quot; target=&quot;_NEW&quot;&gt;\nhttp://i6.imageban.ru/out/2014/07/24/ab42786c8cbbb8d52d96aa09549de96a.png&lt;/a&gt;\n","torrent":{"xt":"urn:btih:0552cb53e470d137c230859f7efc7842bb5e6cf6","amp;dn":"Edge+of+Tomorrow+%282014%29+CAMRip+%5BRUS%5D","amp;tr":["udp%3A%2F%2Ftracker.openbittorrent.com%3A80","udp%3A%2F%2Fopen.demonii.com%3A1337","udp%3A%2F%2Ftracker.coppersurfer.tk%3A6969","udp%3A%2F%2Fexodus.desync.com%3A6969"],"infoHash":"0552cb53e470d137c230859f7efc7842bb5e6cf6","infoHashBuffer":{"type":"Buffer","data":[5,82,203,83,228,112,209,55,194,48,133,159,126,252,120,66,187,94,108,246]},"announce":[],"urlList":[]}}